<svg width="24" height="24" viewBox="0 0 24 24" fill="none" xmlns="http://www.w3.org/2000/svg">
<path d="M4.34106 7.74219C4.34106 6.63762 5.23649 5.74219 6.34106 5.74219H18.3394C19.4439 5.74219 20.3394 6.63762 20.3394 7.74219V15.2939C20.3394 16.3985 19.4439 17.2939 18.3394 17.2939H6.34106C5.23649 17.2939 4.34106 16.3985 4.34106 15.2939V7.74219Z" fill="#90B3FF"/>
<path d="M6.1543 17.293C5.53322 17.2645 4.98771 16.9542 4.64063 16.4854L11.459 11.1582C12.0016 10.7343 12.763 10.7343 13.3057 11.1582L19.9463 16.3467C19.6093 16.892 19.0193 17.2617 18.3389 17.293L6.1543 17.293Z" fill="#C9DAFF"/>
<path d="M18.4321 5.74609C19.0714 5.77532 19.6309 6.10292 19.9761 6.59473L13.1724 12.3438C12.6134 12.816 11.7958 12.816 11.2368 12.3438L4.60986 6.74316C4.94105 6.16994 5.54683 5.77809 6.24854 5.74609H18.4321Z" fill="#E6EEFF"/>
</svg>
