<svg width="24" height="24" viewBox="0 0 24 24" fill="none" xmlns="http://www.w3.org/2000/svg">
<path d="M5.4126 10.6055H19.27V18.0064C19.27 18.5449 18.8335 18.9814 18.295 18.9814H6.3876C5.84912 18.9814 5.4126 18.5449 5.4126 18.0064V10.6055Z" fill="#FF8C8A"/>
<path d="M13.1975 7.82879C12.1422 7.34485 12.1422 5.84536 13.1975 5.36143L15.3575 4.37089C16.2565 3.95862 17.2804 4.61553 17.2804 5.60457L17.2804 7.58565C17.2804 8.57469 16.2565 9.23159 15.3575 8.81933L13.1975 7.82879Z" fill="#FF6060"/>
<path d="M11.4842 7.82879C12.5395 7.34485 12.5395 5.84536 11.4842 5.36143L9.32414 4.37089C8.42512 3.95862 7.4012 4.61553 7.4012 5.60457L7.4012 7.58565C7.4012 8.57469 8.42512 9.23159 9.32414 8.81933L11.4842 7.82879Z" fill="#FF6060"/>
<rect x="11.4481" y="5.15918" width="1.78159" height="2.42655" rx="0.75" fill="#FFB8B8"/>
<path d="M5.4126 7.80117C5.4126 7.26269 5.84912 6.82617 6.3876 6.82617H18.2951C18.8335 6.82617 19.2701 7.26269 19.2701 7.80117V10.6055H5.4126V7.80117Z" fill="white"/>
<path d="M12.3409 6.82617L12.3409 18.9814" stroke="#FF6060" stroke-width="1.22149"/>
</svg>
