<svg width="24" height="24" viewBox="0 0 24 24" fill="none" xmlns="http://www.w3.org/2000/svg">
<path d="M15.7537 5.81945C17.0737 6.53195 18.4312 7.02695 19.1737 7.27445C19.5112 7.38695 19.7512 7.70195 19.7437 8.05445C19.5937 15.1795 16.7737 20.257 12.3487 20.2645C7.90865 20.257 5.09615 15.187 4.93865 8.06945C4.93115 7.70945 5.16365 7.38695 5.50115 7.27445C6.24365 7.02695 7.59365 6.53195 8.92115 5.81945C10.1587 5.15195 11.2537 4.36445 11.8462 3.89945C12.1312 3.68195 12.5212 3.68195 12.8137 3.89945C13.4137 4.35695 14.5087 5.15195 15.7462 5.81945H15.7537Z" fill="#44E1F3"/>
<path d="M8.94421 11.9937L11.6794 14.4698L15.7382 10.6465" stroke="white" stroke-width="1.3" stroke-linecap="round" stroke-linejoin="round"/>
</svg>
