<svg width="24" height="24" viewBox="0 0 24 24" fill="none" xmlns="http://www.w3.org/2000/svg">
<path d="M7.19531 4.96854C7.19531 3.99784 7.98222 3.21094 8.95291 3.21094H19.497C20.4677 3.21094 21.2546 3.99784 21.2546 4.96853V15.5133C21.2546 16.484 20.4677 17.2709 19.497 17.2709H8.95291C7.98222 17.2709 7.19531 16.484 7.19531 15.5133V4.96854Z" fill="#BEF2DD"/>
<path d="M5.021 6.50976C5.021 5.49904 5.84035 4.67969 6.85106 4.67969H17.8299C18.8406 4.67969 19.66 5.49904 19.66 6.50976V17.4893C19.66 18.5 18.8406 19.3193 17.8299 19.3193H6.85106C5.84035 19.3193 5.021 18.5 5.021 17.4893V6.50976Z" fill="#38EBA4"/>
<path d="M8.10693 8.60645H16.5751" stroke="white" stroke-width="1.3" stroke-linecap="round"/>
<path d="M8.10693 11.876H14.2249" stroke="white" stroke-width="1.3" stroke-linecap="round"/>
</svg>
