<svg width="24" height="24" viewBox="0 0 24 24" fill="none" xmlns="http://www.w3.org/2000/svg">
<circle cx="12" cy="12.5107" r="10" fill="#4B5563"/>
<path d="M15.6778 7.70198C15.9901 7.38967 16.4962 7.38974 16.8086 7.70198C17.121 8.01438 17.121 8.52042 16.8086 8.83284L13.1309 12.5096L16.8086 16.1873L16.8643 16.2479C17.1204 16.5621 17.1014 17.0254 16.8086 17.3182C16.5158 17.611 16.0525 17.63 15.7383 17.3739L15.6778 17.3182L12 13.6405L8.32328 17.3182L8.26273 17.3739C7.94852 17.6299 7.48522 17.611 7.19242 17.3182C6.89976 17.0254 6.88075 16.562 7.13676 16.2479L7.19242 16.1873L10.8692 12.5096L7.19242 8.83284C6.8802 8.5204 6.88007 8.01433 7.19242 7.70198C7.50478 7.38965 8.01085 7.38976 8.32328 7.70198L12 11.3787L15.6778 7.70198Z" fill="#202228"/>
</svg>
