<svg width="79" height="89" viewBox="0 0 79 89" fill="none" xmlns="http://www.w3.org/2000/svg">
<path d="M68.1588 21.2666C74.1235 21.2666 78.9588 26.1019 78.9588 32.0666V77.7029C78.9582 83.6671 74.1231 88.5029 68.1588 88.5029H10.8312C4.86695 88.5029 0.0318663 83.6671 0.03125 77.7029V32.0666C0.03125 26.1019 4.86657 21.2666 10.8312 21.2666H68.1588Z" fill="#88B8FF"/>
<path d="M41.3559 4.44329C46.2061 -0.406878 54.069 -0.406878 58.9191 4.44329L60.923 6.44456C65.7727 11.2944 65.7722 19.1576 60.923 24.0077C60.2948 24.636 59.6143 25.1823 58.898 25.6478C59.6141 26.1132 60.2949 26.6571 60.923 27.2852C65.7731 32.1353 65.7731 40.0008 60.923 44.851L58.9191 46.8523C54.069 51.7024 46.2061 51.7024 41.3559 46.8523C40.7317 46.228 40.1873 45.5543 39.7238 44.8431C39.2589 45.5578 38.7161 46.2384 38.089 46.8655C33.2392 51.7148 25.3759 51.7144 20.5259 46.8655L18.522 44.8615C13.6723 40.0115 13.6724 32.1485 18.522 27.2984C19.1512 26.6691 19.8321 26.1217 20.5496 25.6557C19.8352 25.191 19.1566 24.6476 18.5299 24.0209C13.6797 19.1708 13.6797 11.3053 18.5299 6.4551L20.5311 4.45384C25.3813 -0.396331 33.2468 -0.396331 38.097 4.45384C38.719 5.07591 39.2587 5.74925 39.7212 6.45774C40.1854 5.74468 40.7303 5.069 41.3559 4.44329Z" fill="#C9DAFF"/>
<path d="M42.2558 19.5667C41.386 17.216 38.0613 17.216 37.1914 19.5667L36.662 20.9975C36.3885 21.7365 35.8059 22.3192 35.0668 22.5927L33.6361 23.1221C31.2854 23.9919 31.2854 27.3167 33.6361 28.1865L35.0668 28.7159C35.8059 28.9894 36.3885 29.5721 36.662 30.3111L37.1914 31.7419C38.0613 34.0925 41.386 34.0925 42.2558 31.7419L42.7853 30.3111C43.0587 29.5721 43.6414 28.9894 44.3805 28.7159L45.8112 28.1865C48.1619 27.3167 48.1619 23.9919 45.8112 23.1221L44.3805 22.5927C43.6414 22.3192 43.0587 21.7365 42.7853 20.9975L42.2558 19.5667Z" fill="#88B8FF"/>
</svg>
