<svg width="221" height="383" viewBox="0 0 221 383" fill="none" xmlns="http://www.w3.org/2000/svg">
<g filter="url(#filter0_f_579_1980)">
<path d="M-84.4096 125.606C-48.185 62.863 32.044 41.3657 94.7868 77.5903C157.53 113.815 179.027 194.044 142.802 256.787C106.578 319.529 26.3488 341.027 -36.394 304.802C-99.1369 268.578 -120.634 188.349 -84.4096 125.606ZM104.651 234.76C128.711 193.088 114.433 139.801 72.7603 115.741C31.0877 91.6817 -22.1988 105.96 -46.2585 147.632C-70.3181 189.305 -56.0401 242.591 -14.3675 266.651C27.3051 290.711 80.5916 276.433 104.651 234.76Z" fill="url(#paint0_linear_579_1980)" fill-opacity="0.3"/>
</g>
<defs>
<filter id="filter0_f_579_1980" x="-162.007" y="-0.00683594" width="382.406" height="382.406" filterUnits="userSpaceOnUse" color-interpolation-filters="sRGB">
<feFlood flood-opacity="0" result="BackgroundImageFix"/>
<feBlend mode="normal" in="SourceGraphic" in2="BackgroundImageFix" result="shape"/>
<feGaussianBlur stdDeviation="30" result="effect1_foregroundBlur_579_1980"/>
</filter>
<linearGradient id="paint0_linear_579_1980" x1="-36.394" y1="304.802" x2="94.7868" y2="77.5903" gradientUnits="userSpaceOnUse">
<stop stop-color="white"/>
<stop offset="0.322663" stop-color="white" stop-opacity="0.2"/>
</linearGradient>
</defs>
</svg>
