<svg width="49" height="48" fill="none" xmlns="http://www.w3.org/2000/svg"><g clip-path="url(#a)"><path d="M.25 11.998c0-6.627 5.373-12 12-12h24c6.627 0 12 5.373 12 12v24c0 6.628-5.373 12-12 12h-24c-6.627 0-12-5.372-12-12v-24Z" fill="#141214"/><path d="M33.804 15.087a3.6 3.6 0 0 1 3.6 3.6v15.212a3.6 3.6 0 0 1-3.6 3.6h-19.11a3.6 3.6 0 0 1-3.6-3.6V18.687a3.6 3.6 0 0 1 3.6-3.6h19.11Z" fill="#88B8FF"/><path d="M24.869 9.48a4.14 4.14 0 0 1 5.854 0l.668.666a4.14 4.14 0 0 1-.675 6.401 4.14 4.14 0 0 1 .675 6.401l-.668.668a4.14 4.14 0 0 1-6.399-.67 4.14 4.14 0 0 1-6.4.674l-.667-.668a4.14 4.14 0 0 1 .676-6.402 4.14 4.14 0 0 1-.673-6.4l.667-.667a4.14 4.14 0 0 1 6.396.668c.155-.238.337-.463.546-.672Z" fill="#C9DAFF"/><path d="M25.169 14.52c-.29-.783-1.399-.783-1.689 0l-.176.478a.9.9 0 0 1-.532.531l-.477.177c-.783.29-.783 1.398 0 1.688l.477.176a.9.9 0 0 1 .532.532l.177.477c.29.784 1.398.784 1.688 0l.176-.477a.9.9 0 0 1 .532-.532l.477-.176c.783-.29.783-1.398 0-1.688l-.477-.177a.9.9 0 0 1-.532-.531l-.176-.477Z" fill="#88B8FF"/></g><defs><clipPath id="a"><path fill="#fff" transform="translate(.25 -.002)" d="M0 0h48v48H0z"/></clipPath></defs></svg>