<svg width="91" height="24" viewBox="0 0 91 24" fill="none" xmlns="http://www.w3.org/2000/svg">
<path d="M2.64192 14.1399V11.1545H6.63121C7.89933 11.1545 8.85042 10.8991 9.48448 10.3883C10.1185 9.87756 10.4356 9.01453 10.4356 7.79925C10.4356 6.74249 10.145 5.94111 9.56374 5.39511C8.98252 4.8315 8.06665 4.5497 6.81615 4.5497H2.64192V1.61717H6.92182C8.04904 1.61717 9.06178 1.74926 9.96003 2.01346C10.8759 2.27765 11.6509 2.67393 12.2849 3.20232C12.9366 3.71309 13.4297 4.36476 13.7644 5.15734C14.099 5.9323 14.2664 6.84816 14.2664 7.90493C14.2664 9.26111 13.9581 10.4059 13.3417 11.3394C12.7252 12.2553 11.8094 12.951 10.5941 13.4265C9.39642 13.9021 7.89933 14.1399 6.10283 14.1399H2.64192ZM0 19.0538V1.61717H3.77794V19.0538H0Z" fill="white"/>
<path d="M23.1308 19.4237C21.7218 19.4237 20.4889 19.1507 19.4321 18.6047C18.3754 18.0411 17.5476 17.2221 16.9487 16.1477C16.3499 15.0557 16.0505 13.6995 16.0505 12.0792C16.0505 10.4588 16.3499 9.11141 16.9487 8.03703C17.5652 6.96265 18.4018 6.16127 19.4585 5.63288C20.5329 5.08689 21.7482 4.81389 23.1044 4.81389C24.4958 4.81389 25.7199 5.08689 26.7767 5.63288C27.851 6.17888 28.6876 6.99787 29.2865 8.08986C29.9029 9.16424 30.2111 10.5116 30.2111 12.132C30.2111 13.77 29.9029 15.135 29.2865 16.227C28.67 17.3014 27.8246 18.1027 26.7502 18.6311C25.6759 19.1595 24.4694 19.4237 23.1308 19.4237ZM23.2365 16.5968C23.9234 16.5968 24.4958 16.4383 24.9537 16.1213C25.4293 15.8043 25.7903 15.3287 26.0369 14.6947C26.2835 14.043 26.4068 13.2592 26.4068 12.3434C26.4068 11.3746 26.2747 10.5557 26.0105 9.88637C25.7463 9.19947 25.3676 8.67989 24.8745 8.32764C24.3813 7.95777 23.7649 7.77284 23.0251 7.77284C22.3558 7.77284 21.7834 7.93135 21.3079 8.24838C20.8323 8.5478 20.4713 9.02334 20.2247 9.67501C19.9781 10.3091 19.8548 11.0928 19.8548 12.0263C19.8548 13.5234 20.1542 14.6594 20.7531 15.4344C21.3519 16.2094 22.1797 16.5968 23.2365 16.5968Z" fill="white"/>
<path d="M39.3615 19.4237C38.1638 19.4237 37.1158 19.2476 36.2176 18.8953C35.3193 18.5431 34.5708 18.0499 33.972 17.4158C33.3731 16.7818 32.924 16.0332 32.6246 15.1702C32.3252 14.2896 32.1754 13.3297 32.1754 12.2905C32.1754 11.1985 32.3252 10.2034 32.6246 9.30515C32.9416 8.38928 33.3995 7.59671 33.9984 6.92742C34.5972 6.25814 35.3369 5.73856 36.2176 5.36869C37.0982 4.99882 38.1022 4.81389 39.2294 4.81389C40.3566 4.81389 41.3341 4.99882 42.1619 5.36869C43.0073 5.73856 43.6942 6.25814 44.2226 6.92742C44.751 7.57909 45.1032 8.34525 45.2794 9.22589L41.7656 10.3883C41.7128 9.82472 41.5631 9.34918 41.3165 8.9617C41.0875 8.57422 40.7705 8.28361 40.3654 8.08986C39.9779 7.87851 39.5376 7.77284 39.0444 7.77284C38.5337 7.77284 38.0933 7.87851 37.7235 8.08986C37.3536 8.28361 37.0366 8.57422 36.7724 8.9617C36.5258 9.33157 36.3321 9.7895 36.1912 10.3355C36.0679 10.8639 36.0062 11.4627 36.0062 12.132C36.0062 13.0831 36.1295 13.8933 36.3761 14.5626C36.6403 15.2142 37.019 15.7162 37.5121 16.0685C38.0229 16.4031 38.657 16.5704 39.4143 16.5704C40.1012 16.5704 40.656 16.4383 41.0787 16.1741C41.5014 15.8923 41.8096 15.5401 42.0034 15.1174C42.2147 14.677 42.3468 14.2279 42.3997 13.77L45.7285 14.5097C45.6404 15.1966 45.4467 15.8395 45.1473 16.4383C44.8655 17.0372 44.4604 17.5655 43.932 18.0235C43.4036 18.4638 42.7607 18.8072 42.0034 19.0538C41.2636 19.3004 40.383 19.4237 39.3615 19.4237Z" fill="white"/>
<path d="M47.932 19.0538V0.137695H51.6571V10.6525C52.2031 10.2827 52.7227 9.88637 53.2158 9.46366C53.7266 9.02334 54.1845 8.56541 54.5896 8.08986C55.0123 7.61432 55.391 7.12997 55.7257 6.63681C56.0603 6.14365 56.3421 5.6593 56.5711 5.18376H60.9038C60.6572 5.85304 60.3138 6.53113 59.8735 7.21803C59.4508 7.88732 58.94 8.51257 58.3412 9.09379C57.7423 9.6574 57.0554 10.1418 56.2805 10.5468C55.5055 10.9519 54.6513 11.2249 53.7178 11.3658V11.815C54.8979 11.6036 55.8754 11.6212 56.6503 11.8678C57.4253 12.1144 58.0594 12.5107 58.5525 13.0567C59.0633 13.5851 59.4684 14.2015 59.7678 14.906C60.0848 15.5929 60.3578 16.2886 60.5868 16.9931L61.2208 19.0538H57.073L56.7296 17.7593C56.4654 16.8963 56.1836 16.1389 55.8842 15.4872C55.5848 14.8356 55.1885 14.3336 54.6953 13.9813C54.2198 13.6115 53.5593 13.4265 52.7139 13.4265H51.6571V19.0538H47.932Z" fill="white"/>
<path d="M69.6777 19.4237C68.5328 19.4237 67.5113 19.2652 66.613 18.9481C65.7148 18.6311 64.9574 18.1732 64.341 17.5743C63.7245 16.9755 63.249 16.2446 62.9144 15.3816C62.5973 14.5009 62.4388 13.497 62.4388 12.3698C62.4388 11.2778 62.5885 10.2738 62.8879 9.35798C63.205 8.42451 63.6629 7.62313 64.2617 6.95384C64.8606 6.26694 65.5915 5.73856 66.4545 5.36869C67.3175 4.99882 68.2951 4.81389 69.3871 4.81389C70.4438 4.81389 71.3861 4.99002 72.2139 5.34227C73.0417 5.67691 73.7286 6.18768 74.2746 6.87458C74.8382 7.56148 75.2521 8.40689 75.5163 9.41082C75.7805 10.3971 75.8686 11.542 75.7805 12.8453L64.8958 12.9246V10.8375L73.5877 10.7582L72.2667 11.815C72.3724 10.8815 72.302 10.1153 72.0554 9.5165C71.8088 8.91767 71.4477 8.47735 70.9722 8.19554C70.5143 7.91374 70.0035 7.77284 69.4399 7.77284C68.7706 7.77284 68.1806 7.94896 67.6698 8.30122C67.159 8.65347 66.7628 9.17305 66.4809 9.85995C66.1991 10.5292 66.0582 11.3394 66.0582 12.2905C66.0582 13.7876 66.3841 14.8884 67.0357 15.5929C67.705 16.2974 68.5769 16.6497 69.6512 16.6497C70.1444 16.6497 70.5583 16.588 70.8929 16.4647C71.2452 16.3238 71.527 16.1477 71.7384 15.9364C71.9673 15.725 72.1434 15.4872 72.2667 15.223C72.4076 14.9588 72.5221 14.6947 72.6102 14.4305L75.9126 15.1438C75.7717 15.7955 75.5427 16.3855 75.2257 16.9139C74.9087 17.4246 74.4948 17.8738 73.984 18.2612C73.4732 18.6311 72.8568 18.9129 72.1346 19.1067C71.4301 19.318 70.6111 19.4237 69.6777 19.4237Z" fill="white"/>
<path d="M83.7876 23.8621C83.0831 23.8621 82.3609 23.7917 81.6212 23.6508C80.8991 23.5275 80.2122 23.3249 79.5605 23.0431C78.9264 22.7789 78.3892 22.4355 77.9489 22.0128L79.0057 18.7632C79.5693 19.3444 80.2738 19.7759 81.1192 20.0577C81.9646 20.3572 82.8013 20.5069 83.6291 20.5069C84.5801 20.5069 85.3639 20.3131 85.9804 19.9257C86.5968 19.5558 87.0723 18.9834 87.407 18.2084C87.7416 17.4158 87.9266 16.4295 87.9618 15.2495L88.1203 12.8453H87.5391C87.363 14.0254 87.0723 14.9853 86.6673 15.725C86.2798 16.4471 85.7778 16.9843 85.1614 17.3366C84.5625 17.6712 83.8492 17.8385 83.0214 17.8385C82.0175 17.8385 81.1721 17.5832 80.4852 17.0724C79.7983 16.5616 79.2787 15.7955 78.9264 14.7739C78.5918 13.7524 78.4245 12.4931 78.4245 10.996V5.18376H82.2288V10.0713C82.2288 11.7093 82.4138 12.8893 82.7836 13.6115C83.1535 14.3336 83.7171 14.6947 84.4745 14.6947C84.8972 14.6947 85.267 14.589 85.5841 14.3776C85.9187 14.1487 86.2005 13.8228 86.4295 13.4001C86.6761 12.9774 86.861 12.4666 86.9843 11.8678C87.1252 11.2514 87.1956 10.5557 87.1956 9.78069V5.18376H91V15.408C91 16.5176 90.9031 17.5215 90.7094 18.4198C90.5156 19.318 90.225 20.1018 89.8376 20.7711C89.4677 21.458 88.9921 22.0304 88.4109 22.4883C87.8297 22.9462 87.1516 23.2897 86.3766 23.5187C85.6193 23.7476 84.7563 23.8621 83.7876 23.8621Z" fill="white"/>
</svg>
