<svg width="33" height="33" viewBox="0 0 33 33" fill="none" xmlns="http://www.w3.org/2000/svg">
<path d="M24.627 5.55078C26.0997 5.55078 27.2939 6.74501 27.2939 8.21777V24.2178C27.2937 25.6903 26.0996 26.8838 24.627 26.8838H8.62695C7.15433 26.8838 5.96018 25.6903 5.95996 24.2178V8.21777C5.95996 6.74501 7.15419 5.55078 8.62695 5.55078H24.627ZM19.0957 10.8789C18.1625 10.8789 17.3348 11.3263 16.8125 12.0176C16.7219 12.1375 16.5311 12.1375 16.4404 12.0176C15.9182 11.3265 15.0912 10.879 14.1582 10.8789C12.5767 10.8789 11.2949 12.1616 11.2949 13.7432C11.2951 14.6764 11.7423 15.5032 12.4336 16.0254C12.5536 16.1161 12.5536 16.3078 12.4336 16.3984C11.7422 16.9208 11.2949 17.7482 11.2949 18.6816C11.295 20.2631 12.5767 21.5449 14.1582 21.5449C15.0913 21.5448 15.9182 21.0974 16.4404 20.4062C16.5311 20.2863 16.7219 20.2863 16.8125 20.4062C17.3348 21.0976 18.1624 21.5449 19.0957 21.5449C20.677 21.5447 21.9589 20.263 21.959 18.6816C21.959 17.7481 21.5109 16.9207 20.8193 16.3984C20.6993 16.3078 20.6993 16.116 20.8193 16.0254C21.5108 15.5033 21.9588 14.6765 21.959 13.7432C21.959 12.1618 20.6771 10.8791 19.0957 10.8789Z" fill="#F9FAFD"/>
</svg>
