<svg width="33" height="33" viewBox="0 0 33 33" fill="none" xmlns="http://www.w3.org/2000/svg">
<path d="M5.99805 7.86384C5.99805 6.58745 7.03277 5.55273 8.30916 5.55273H13.8567C15.1331 5.55273 16.1678 6.58745 16.1678 7.86385V13.4114C16.1678 14.6878 15.1331 15.7225 13.8567 15.7225H8.30916C7.03277 15.7225 5.99805 14.6878 5.99805 13.4114V7.86384Z" fill="#D1D5DB"/>
<path d="M5.99805 19.0201C5.99805 17.7437 7.03277 16.709 8.30916 16.709H13.8567C15.1331 16.709 16.1678 17.7437 16.1678 19.0201V24.5677C16.1678 25.8441 15.1331 26.8788 13.8567 26.8788H8.30916C7.03277 26.8788 5.99805 25.8441 5.99805 24.5677V19.0201Z" fill="#D1D5DB"/>
<path d="M17.0889 7.86384C17.0889 6.58745 18.1236 5.55273 19.4 5.55273H24.9475C26.2239 5.55273 27.2587 6.58745 27.2587 7.86385V13.4114C27.2587 14.6878 26.2239 15.7225 24.9475 15.7225H19.4C18.1236 15.7225 17.0889 14.6878 17.0889 13.4114V7.86384Z" fill="#D1D5DB"/>
<path d="M17.0889 19.0201C17.0889 17.7437 18.1236 16.709 19.4 16.709H24.9475C26.2239 16.709 27.2587 17.7437 27.2587 19.0201V24.5677C27.2587 25.8441 26.2239 26.8788 24.9475 26.8788H19.4C18.1236 26.8788 17.0889 25.8441 17.0889 24.5677V19.0201Z" fill="#D1D5DB"/>
</svg>
