<svg width="22" height="21" viewBox="0 0 22 21" fill="none" xmlns="http://www.w3.org/2000/svg">
<path d="M8.89774 1.26757C9.96539 -0.101047 12.0353 -0.10105 13.1029 1.26757L15.2858 4.06586C15.594 4.46092 16.0073 4.76116 16.4782 4.93218L19.8141 6.14354C21.4457 6.73601 22.0853 8.70457 21.1136 10.1429L19.1268 13.0837C18.8463 13.4989 18.6885 13.9847 18.6714 14.4854L18.5501 18.0324C18.4908 19.7672 16.8163 20.9838 15.1481 20.5041L11.7373 19.5233C11.2557 19.3849 10.7449 19.3849 10.2634 19.5233L6.85258 20.5041C5.18438 20.9838 3.50982 19.7672 3.45053 18.0324L3.3293 14.4854C3.31219 13.9847 3.15434 13.4989 2.87385 13.0837L0.887076 10.1429C-0.0846355 8.70457 0.554987 6.73601 2.18654 6.14354L5.52244 4.93218C5.99339 4.76116 6.40664 4.46092 6.71482 4.06586L8.89774 1.26757Z" fill="#D1D5DB"/>
</svg>
