<svg width="32" height="33" viewBox="0 0 32 33" fill="none" xmlns="http://www.w3.org/2000/svg">
<g clip-path="url(#clip0_646_6059)">
<circle cx="16.0003" cy="10.8802" r="5.33333" fill="#D1D5DB"/>
<path d="M22.661 27.3776C24.8731 27.3776 26.7355 25.513 25.8544 23.484C25.3183 22.2496 24.5326 21.1279 23.5421 20.1832C22.5517 19.2384 21.3758 18.4889 20.0816 17.9776C18.7875 17.4663 17.4004 17.2031 15.9997 17.2031C14.5989 17.2031 13.2119 17.4663 11.9177 17.9776C10.6236 18.4889 9.44769 19.2384 8.4572 20.1832C7.46671 21.1279 6.68101 22.2496 6.14496 23.484C5.26385 25.513 7.12625 27.3776 9.33834 27.3776L15.9997 27.3776H22.661Z" fill="#D1D5DB"/>
</g>
<defs>
<clipPath id="clip0_646_6059">
<rect width="32" height="32" fill="white" transform="translate(0 0.212891)"/>
</clipPath>
</defs>
</svg>
