<svg width="75" height="24" viewBox="0 0 75 24" fill="none" xmlns="http://www.w3.org/2000/svg">
<path d="M15.125 5.53125C17.2478 5.53125 18.9688 7.25216 18.9688 9.375C18.9688 10.3904 18.5738 11.3129 17.9307 12C18.5738 12.6871 18.9688 13.6096 18.9688 14.625C18.9688 16.7478 17.2478 18.4688 15.125 18.4688C14.1096 18.4688 13.1871 18.0738 12.5 17.4307C11.8129 18.0738 10.8904 18.4688 9.875 18.4688C7.75216 18.4688 6.03125 16.7478 6.03125 14.625C6.03125 13.6098 6.42546 12.6871 7.06836 12C6.42546 11.3129 6.03125 10.3902 6.03125 9.375C6.03125 7.25216 7.75216 5.53125 9.875 5.53125C10.8902 5.53125 11.8129 5.92546 12.5 6.56836C13.1871 5.92546 14.1098 5.53125 15.125 5.53125Z" fill="#C9DAFF"/>
<path d="M25.9516 13.1759V11.5356H28.1435C28.8403 11.5356 29.3629 11.3953 29.7113 11.1146C30.0596 10.834 30.2338 10.3598 30.2338 9.69207C30.2338 9.11143 30.0742 8.67111 29.7548 8.37111C29.4354 8.06144 28.9322 7.9066 28.2451 7.9066H25.9516V6.29532H28.3032C28.9225 6.29532 29.479 6.3679 29.9725 6.51306C30.4758 6.65822 30.9016 6.87596 31.25 7.16628C31.608 7.44692 31.879 7.80499 32.0629 8.24047C32.2467 8.66627 32.3387 9.16949 32.3387 9.75013C32.3387 10.4953 32.1693 11.1243 31.8306 11.6372C31.4919 12.1404 30.9887 12.5227 30.3209 12.784C29.6629 13.0453 28.8403 13.1759 27.8532 13.1759H25.9516ZM24.5 15.8759V6.29532H26.5758V15.8759H24.5Z" fill="#C9DAFF"/>
<path d="M37.2092 16.0791C36.435 16.0791 35.7576 15.9291 35.177 15.6291C34.5963 15.3194 34.1415 14.8695 33.8125 14.2791C33.4835 13.6791 33.3189 12.934 33.3189 12.0437C33.3189 11.1534 33.4835 10.413 33.8125 9.82271C34.1512 9.23239 34.6109 8.79208 35.1915 8.50176C35.7818 8.20176 36.4496 8.05176 37.1947 8.05176C37.9592 8.05176 38.6318 8.20176 39.2124 8.50176C39.8028 8.80175 40.2624 9.25175 40.5915 9.85175C40.9302 10.4421 41.0995 11.1824 41.0995 12.0727C41.0995 12.9727 40.9302 13.7227 40.5915 14.3227C40.2528 14.913 39.7882 15.3533 39.1979 15.6436C38.6076 15.934 37.9447 16.0791 37.2092 16.0791ZM37.2673 14.5259C37.6447 14.5259 37.9592 14.4388 38.2108 14.2646C38.4721 14.0904 38.6705 13.8291 38.806 13.4808C38.9415 13.1227 39.0092 12.692 39.0092 12.1888C39.0092 11.6566 38.9366 11.2066 38.7915 10.8388C38.6463 10.4614 38.4383 10.1759 38.1673 9.98239C37.8963 9.77917 37.5576 9.67755 37.1512 9.67755C36.7834 9.67755 36.4689 9.76465 36.2076 9.93884C35.9463 10.1034 35.748 10.3646 35.6125 10.7227C35.477 11.0711 35.4092 11.5017 35.4092 12.0146C35.4092 12.8372 35.5738 13.4614 35.9028 13.8872C36.2318 14.313 36.6867 14.5259 37.2673 14.5259Z" fill="#C9DAFF"/>
<path d="M46.1272 16.0791C45.4691 16.0791 44.8933 15.9823 44.3998 15.7888C43.9062 15.5953 43.4949 15.3243 43.1659 14.9759C42.8369 14.6275 42.5901 14.2162 42.4256 13.742C42.2611 13.2582 42.1788 12.7308 42.1788 12.1598C42.1788 11.5598 42.2611 11.013 42.4256 10.5195C42.5998 10.0163 42.8514 9.58078 43.1804 9.21304C43.5095 8.8453 43.9159 8.55982 44.3998 8.3566C44.8836 8.15337 45.4352 8.05176 46.0546 8.05176C46.674 8.05176 47.211 8.15337 47.6659 8.3566C48.1304 8.55982 48.5078 8.8453 48.7981 9.21304C49.0884 9.5711 49.282 9.99207 49.3788 10.4759L47.4481 11.1146C47.4191 10.805 47.3368 10.5437 47.2014 10.3308C47.0756 10.1179 46.9014 9.9582 46.6788 9.85175C46.4659 9.73562 46.224 9.67755 45.953 9.67755C45.6723 9.67755 45.4304 9.73562 45.2272 9.85175C45.024 9.9582 44.8498 10.1179 44.7046 10.3308C44.5691 10.534 44.4627 10.7856 44.3853 11.0856C44.3175 11.3759 44.2836 11.705 44.2836 12.0727C44.2836 12.5953 44.3514 13.0404 44.4869 13.4082C44.632 13.7662 44.8401 14.042 45.1111 14.2356C45.3917 14.4195 45.7401 14.5114 46.1562 14.5114C46.5336 14.5114 46.8385 14.4388 47.0707 14.2936C47.303 14.1388 47.4723 13.9453 47.5788 13.713C47.6949 13.4711 47.7675 13.2243 47.7965 12.9727L49.6255 13.3791C49.5772 13.7566 49.4707 14.1098 49.3062 14.4388C49.1514 14.7678 48.9288 15.0582 48.6385 15.3098C48.3481 15.5517 47.9949 15.7404 47.5788 15.8759C47.1723 16.0114 46.6885 16.0791 46.1272 16.0791Z" fill="#C9DAFF"/>
<path d="M50.8363 15.8759V5.48242H52.883V11.2598C53.183 11.0566 53.4685 10.8388 53.7395 10.6066C54.0201 10.3646 54.2717 10.113 54.4943 9.85175C54.7266 9.59046 54.9346 9.32433 55.1185 9.05336C55.3024 8.7824 55.4572 8.51627 55.583 8.25498H57.9636C57.8282 8.62272 57.6394 8.9953 57.3975 9.37272C57.1653 9.74046 56.8846 10.084 56.5556 10.4034C56.2266 10.713 55.8491 10.9792 55.4233 11.2017C54.9975 11.4243 54.5282 11.5743 54.0153 11.6517V11.8985C54.6637 11.7824 55.2008 11.7921 55.6266 11.9275C56.0524 12.063 56.4007 12.2808 56.6717 12.5808C56.9524 12.8711 57.1749 13.2098 57.3395 13.5969C57.5136 13.9743 57.6636 14.3566 57.7894 14.7436L58.1378 15.8759H55.8588L55.6701 15.1646C55.5249 14.6904 55.3701 14.2743 55.2056 13.9162C55.0411 13.5582 54.8233 13.2824 54.5524 13.0888C54.2911 12.8856 53.9282 12.784 53.4637 12.784H52.883V15.8759H50.8363Z" fill="#C9DAFF"/>
<path d="M62.7844 16.0791C62.1554 16.0791 61.5941 15.992 61.1006 15.8178C60.607 15.6436 60.1909 15.392 59.8522 15.063C59.5135 14.734 59.2522 14.3324 59.0683 13.8582C58.8941 13.3743 58.807 12.8227 58.807 12.2033C58.807 11.6033 58.8893 11.0517 59.0538 10.5485C59.228 10.0356 59.4796 9.5953 59.8086 9.22756C60.1377 8.85014 60.5393 8.55982 61.0135 8.3566C61.4877 8.15337 62.0248 8.05176 62.6248 8.05176C63.2054 8.05176 63.7231 8.14853 64.178 8.34208C64.6328 8.52595 65.0102 8.80659 65.3102 9.18401C65.6199 9.56143 65.8473 10.0259 65.9925 10.5775C66.1376 11.1195 66.186 11.7485 66.1376 12.4646L60.157 12.5082V11.3614L64.9328 11.3179L64.207 11.8985C64.2651 11.3856 64.2264 10.9646 64.0909 10.6356C63.9554 10.3066 63.757 10.0646 63.4957 9.90981C63.2441 9.75497 62.9635 9.67755 62.6538 9.67755C62.286 9.67755 61.9619 9.77433 61.6812 9.96787C61.4006 10.1614 61.1828 10.4469 61.028 10.8243C60.8732 11.1921 60.7957 11.6372 60.7957 12.1598C60.7957 12.9824 60.9748 13.5872 61.3328 13.9743C61.7006 14.3614 62.1796 14.5549 62.7699 14.5549C63.0409 14.5549 63.2683 14.5211 63.4522 14.4533C63.6457 14.3759 63.8006 14.2791 63.9167 14.163C64.0425 14.0469 64.1393 13.9162 64.207 13.7711C64.2844 13.6259 64.3473 13.4808 64.3957 13.3356L66.2102 13.7275C66.1328 14.0856 66.007 14.4098 65.8328 14.7001C65.6586 14.9807 65.4312 15.2275 65.1505 15.4404C64.8699 15.6436 64.5312 15.7985 64.1344 15.9049C63.7473 16.0211 63.2973 16.0791 62.7844 16.0791Z" fill="#C9DAFF"/>
<path d="M70.5371 18.5178C70.15 18.5178 69.7533 18.4791 69.3468 18.4017C68.95 18.3339 68.5726 18.2227 68.2146 18.0678C67.8662 17.9227 67.571 17.7339 67.3291 17.5017L67.9097 15.7162C68.2194 16.0356 68.6065 16.2727 69.071 16.4275C69.5355 16.592 69.9952 16.6743 70.45 16.6743C70.9726 16.6743 71.4032 16.5678 71.742 16.3549C72.0807 16.1517 72.342 15.8372 72.5258 15.4114C72.7097 14.9759 72.8113 14.434 72.8307 13.7856L72.9178 12.4646H72.5984C72.5016 13.113 72.3419 13.6404 72.1194 14.0469C71.9065 14.4436 71.6307 14.7388 71.292 14.9324C70.9629 15.1162 70.571 15.2082 70.1162 15.2082C69.5646 15.2082 69.1 15.0678 68.7226 14.7872C68.3452 14.5066 68.0597 14.0856 67.8662 13.5243C67.6823 12.963 67.5904 12.2711 67.5904 11.4485V8.25498H69.6807V10.9404C69.6807 11.8404 69.7823 12.4888 69.9855 12.8856C70.1887 13.2824 70.4984 13.4808 70.9145 13.4808C71.1468 13.4808 71.35 13.4227 71.5242 13.3066C71.7081 13.1808 71.8629 13.0017 71.9887 12.7695C72.1242 12.5372 72.2258 12.2566 72.2936 11.9275C72.371 11.5888 72.4097 11.2066 72.4097 10.7808V8.25498H74.5V13.8727C74.5 14.4824 74.4468 15.034 74.3403 15.5275C74.2339 16.0211 74.0742 16.4517 73.8613 16.8194C73.6581 17.1969 73.3968 17.5114 73.0774 17.763C72.7581 18.0146 72.3855 18.2033 71.9597 18.3291C71.5436 18.4549 71.0694 18.5178 70.5371 18.5178Z" fill="#C9DAFF"/>
</svg>
