<svg width="25" height="24" viewBox="0 0 25 24" fill="none" xmlns="http://www.w3.org/2000/svg">
<path d="M24.1367 12.0011C24.1367 18.6282 18.764 23.9996 12.1368 23.9996C5.50971 23.9996 0.136719 18.6282 0.136719 12.0011C0.136719 5.37397 5.51089 0.000976562 12.1368 0.000976562C18.7628 0.000976562 24.1367 5.37374 24.1367 12.0011Z" fill="#FFD900"/>
<path d="M12.1352 6.33789C8.20434 6.33789 5.01758 8.85576 5.01758 11.9612C5.01758 13.9578 6.33522 15.7116 8.32106 16.7094L7.65029 19.2155C7.62544 19.2898 7.64419 19.3704 7.69927 19.4255C7.73888 19.4651 7.79114 19.4853 7.84364 19.4853C7.88817 19.4853 7.93271 19.471 7.97021 19.4414L10.8558 17.4936C11.2709 17.5529 11.6986 17.5845 12.1355 17.5845C16.0664 17.5845 19.2534 15.0671 19.2534 11.9614C19.2534 8.85576 16.0666 6.33813 12.1355 6.33813L12.1352 6.33789Z" fill="#1D1D1B"/>
</svg>
